Coordinates
version=1
nRows=17
nColumns=40
inDegrees=yes

Units are S.I. units (second, meters, Newtons, ...)
If the header above contains a line with 'inDegrees', this indicates whether rotational values are in degrees (yes) or radians (no).

endheader
time	pelvis_tilt	pelvis_list	pelvis_rotation	pelvis_tx	pelvis_ty	pelvis_tz	hip_flexion_r	hip_adduction_r	hip_rotation_r	knee_angle_r	knee_angle_r_beta	ankle_angle_r	subtalar_angle_r	mtp_angle_r	hip_flexion_l	hip_adduction_l	hip_rotation_l	knee_angle_l	knee_angle_l_beta	ankle_angle_l	subtalar_angle_l	mtp_angle_l	lumbar_extension	lumbar_bending	lumbar_rotation	arm_flex_r	arm_add_r	arm_rot_r	elbow_flex_r	pro_sup_r	wrist_flex_r	wrist_dev_r	arm_flex_l	arm_add_l	arm_rot_l	elbow_flex_l	pro_sup_l	wrist_flex_l	wrist_dev_l
      0.00000000	    -20.91412248	     -3.86516525	      8.55116397	     -0.24879027	      1.03623763	      0.01553304	    101.73989465	    -16.84185478	      6.60579969	    122.54146791	      2.13875209	     -0.76250401	     -9.36817162	      0.00000000	     59.18106690	     -2.72085586	      6.35676223	     42.77123180	      0.74649882	    -18.40289273	    -12.62432821	      0.00000000	    -35.37392905	      8.05203745	     -0.65601404	     88.59119120	     -3.13785998	    -33.31314244	     18.99835141	      0.68978965	      0.00000000	      0.00000000	     89.58572051	     -0.14541957	     23.08051050	     11.66598641	     89.42260332	      0.00000000	      0.00000000
      0.00833333	    -20.79076711	     -4.04905575	      8.63553709	     -0.24855284	      1.03675460	      0.01543931	    102.87427897	    -16.73931975	      6.65383248	    122.45614965	      2.13726300	     -0.70886905	     -9.42383559	      0.00000000	     58.36433987	     -2.95705228	      6.34026369	     42.95012071	      0.74962102	    -18.25691173	    -12.66206700	      0.00000000	    -35.52524912	      8.35783678	     -0.61052942	     88.65419139	     -3.04752602	    -33.35288247	     19.03644253	      0.68704589	      0.00000000	      0.00000000	     89.57133981	     -0.22826732	     23.08474688	     11.70280416	     89.43286700	      0.00000000	      0.00000000
      0.01666667	    -21.06454713	     -3.98021124	      8.73092266	     -0.24890313	      1.03700042	      0.01518724	    104.48240876	    -16.69099938	      6.93360847	    122.09658809	      2.13098747	     -1.29183557	    -10.28330059	      0.00000000	     57.92723450	     -2.79564415	      6.37270232	     43.14496539	      0.75302170	    -18.17535053	    -13.26077734	      0.00000000	    -35.29783902	      8.40688603	     -0.74478135	     88.73375023	     -2.91896129	    -33.93795760	     19.03734934	      0.69085362	      0.00000000	      0.00000000	     89.57092767	     -0.26373576	     22.96718360	     11.66660056	     89.42010850	      0.00000000	      0.00000000
      0.02500000	    -20.94252591	     -4.03878033	      8.85631332	     -0.24882341	      1.03782105	      0.01501791	    105.34063772	    -16.64934427	      6.99049451	    121.55180785	      2.12147926	     -1.26366520	    -10.34317029	      0.00000000	     57.29294307	     -2.83529519	      6.45051110	     43.65093280	      0.76185250	    -18.08326837	    -13.32732072	      0.00000000	    -35.48082522	      8.61579501	     -0.76956662	     88.80570024	     -2.84776993	    -33.93940963	     19.11564104	      0.67070546	      0.00000000	      0.00000000	     89.59234040	     -0.29549473	     22.91418420	     11.70638959	     89.41338145	      0.00000000	      0.00000000
      0.03333333	    -20.97642205	     -4.01687030	      8.98676376	     -0.24918087	      1.03859549	      0.01489302	    106.26859096	    -16.70841920	      7.03587378	    120.77185327	      2.10786648	     -1.54859662	    -10.48421112	      0.00000000	     56.90683510	     -2.72050810	      6.60459229	     44.34907518	      0.77403738	    -17.75781474	    -13.66471618	      0.00000000	    -35.54383648	      8.71351479	     -0.90727467	     88.86412975	     -2.74463106	    -33.93521006	     19.20766798	      0.67689735	      0.00000000	      0.00000000	     89.61169582	     -0.39487087	     22.78252797	     11.83675541	     89.41369084	      0.00000000	      0.00000000
      0.04166667	    -21.56461702	     -4.01646704	      9.02724359	     -0.25018231	      1.03821184	      0.01485530	    107.81675060	    -16.52389941	      7.06411136	    119.85529742	      2.09186957	     -2.84489755	    -11.81886356	      0.00000000	     57.48836205	     -2.53241346	      6.72096486	     45.53182664	      0.79468029	    -17.89343281	    -14.99115648	      0.00000000	    -34.98436985	      8.72045242	     -1.00473970	     88.87715615	     -2.71860398	    -33.78634888	     19.34512683	      0.68620407	      0.00000000	      0.00000000	     89.60317242	     -0.38226729	     21.84269534	     11.93900151	     89.42222034	      0.00000000	      0.00000000
      0.05000000	    -21.59500061	     -3.87290706	      9.06832889	     -0.25058389	      1.03873072	      0.01477787	    108.37760141	    -16.33807724	      7.15084463	    118.65131157	      2.07085605	     -2.82577795	    -12.13382514	      0.00000000	     57.57589381	     -2.47212314	      6.55583701	     46.94687050	      0.81937746	    -17.71765254	    -15.21249940	      0.00000000	    -35.06264928	      8.63137044	     -1.09448223	     88.86649179	     -2.79327930	    -32.77509439	     19.44678586	      0.69936914	      0.00000000	      0.00000000	     89.61251050	     -0.42498658	     21.61867082	     12.16093929	     89.42371483	      0.00000000	      0.00000000
      0.05833333	    -21.76939335	     -3.92244634	      8.78844695	     -0.25115597	      1.03898028	      0.01520116	    108.84112402	    -15.79904167	      6.80098092	    117.28006167	      2.04692322	     -3.50948531	    -12.96307331	      0.00000000	     58.07393668	     -2.73568954	      6.45155796	     48.73380548	      0.85056536	    -17.60823272	    -16.02958633	      0.00000000	    -34.99918866	      8.51827895	     -0.85858176	     88.90078854	     -2.75258648	    -32.71804649	     19.56757363	      0.68903552	      0.00000000	      0.00000000	     89.63350975	     -0.45613605	     21.53024509	     12.24472543	     89.42401416	      0.00000000	      0.00000000
      0.06666667	    -21.91115444	     -3.99781299	      8.67044097	     -0.25187378	      1.03913413	      0.01541896	    109.08396870	    -15.45002272	      6.50233545	    115.80087438	      2.02110653	     -4.02812408	    -13.52836670	      0.00000000	     58.72263289	     -2.92022090	      6.43058167	     50.73639159	      0.88551708	    -17.27761770	    -16.22571110	      0.00000000	    -34.95126303	      8.51565246	     -0.74766018	     88.68830852	     -2.97737869	    -29.77787285	     19.94059041	      0.70290207	      0.00000000	      0.00000000	     89.63631633	     -0.53798942	     21.43932855	     12.48619589	     89.43213630	      0.00000000	      0.00000000
      0.07500000	    -21.58221558	     -4.16301244	      8.14763981	     -0.25176209	      1.03942906	      0.01612158	    108.55747008	    -14.67585471	      5.74678437	    114.21059534	      1.99335093	     -4.83037815	    -14.75406909	      0.00000000	     59.14060670	     -3.58816434	      6.23766657	     53.33317569	      0.93083952	    -16.76998731	    -16.92098459	      0.00000000	    -35.38726462	      8.39298563	     -0.16541626	     88.94044133	     -2.86132933	    -31.15249776	     19.82275338	      0.69579168	      0.00000000	      0.00000000	     89.65291602	     -0.52393733	     21.18969029	     12.61191312	     89.42128872	      0.00000000	      0.00000000
      0.08333333	    -21.69749845	     -4.11010206	      7.95284673	     -0.25256985	      1.03942024	      0.01631274	    108.41608230	    -14.18479330	      5.49955770	    112.38981816	      1.96157237	     -5.63594889	    -15.38122696	      0.00000000	     59.95731191	     -3.70133751	      6.18572769	     55.57260886	      0.96992500	    -16.57102158	    -17.31218321	      0.00000000	    -35.36352337	      8.22521766	     -0.07045106	     88.94174852	     -2.91644610	    -30.26127837	     19.95585408	      0.69663199	      0.00000000	      0.00000000	     89.66990092	     -0.56544278	     21.01319767	     12.80375067	     89.42264137	      0.00000000	      0.00000000
      0.09166667	    -21.68682416	     -4.09058076	      7.64665776	     -0.25306490	      1.03936644	      0.01657036	    107.93728004	    -13.65827908	      5.10807365	    110.47035418	      1.92807141	     -6.40150974	    -15.53709682	      0.00000000	     60.80758876	     -3.97631313	      6.12690900	     58.05030063	      1.01316888	    -16.48607338	    -17.61860035	      0.00000000	    -35.46095591	      8.03451746	      0.15456105	     89.01374532	     -2.94592224	    -30.01953964	     19.98922734	      0.69987696	      0.00000000	      0.00000000	     89.68452648	     -0.56024060	     20.32955259	     13.04467073	     89.42131600	      0.00000000	      0.00000000
      0.10000000	    -21.79515366	     -4.04037028	      7.59155976	     -0.25385736	      1.03923872	      0.01651973	    107.41250863	    -13.38192921	      4.86994338	    108.48160868	      1.89336125	     -6.73176298	    -15.95973181	      0.00000000	     61.78851648	     -3.89534977	      6.28013549	     60.41351299	      1.05441471	    -16.64919231	    -18.20108274	      0.00000000	    -35.43089201	      7.93692437	      0.14192907	     88.83302191	     -3.22412471	    -27.33045069	     20.27865511	      0.70948111	      0.00000000	      0.00000000	     89.70128034	     -0.56199379	     19.94711808	     13.29610762	     89.42362265	      0.00000000	      0.00000000
      0.10833333	    -21.84950107	     -3.92864100	      7.48189400	     -0.25457125	      1.03910233	      0.01654742	    106.70586273	    -13.07470178	      4.63780538	    106.39188214	      1.85688864	     -6.95306625	    -16.19517052	      0.00000000	     62.74979274	     -3.89842987	      6.25803078	     62.83194382	      1.09662430	    -16.80825285	    -18.66206843	      0.00000000	    -35.45768701	      7.75005424	      0.14589297	     88.72914477	     -3.43422973	    -25.42571084	     20.50796618	      0.72162342	      0.00000000	      0.00000000	     89.72244238	     -0.57815641	     20.03032098	     13.47994231	     89.42159892	      0.00000000	      0.00000000
      0.11666667	    -21.79291851	     -3.66017579	      7.37180982	     -0.25499647	      1.03886731	      0.01664877	    105.79175829	    -12.79439681	      4.51345713	    104.29876153	      1.82035679	     -7.02827850	    -16.41846668	      0.00000000	     63.63065241	     -3.85431422	      6.12367562	     65.34787536	      1.14053558	    -16.84443401	    -18.71548540	      0.00000000	    -35.57095811	      7.39819331	      0.03884989	     88.96503965	     -3.16506315	    -27.70148522	     20.38432146	      0.70956124	      0.00000000	      0.00000000	     89.73974862	     -0.65819377	     20.51965244	     13.63186399	     89.42364366	      0.00000000	      0.00000000
      0.12500000	    -21.74699687	     -3.69200676	      7.32023536	     -0.25553347	      1.03861712	      0.01657956	    104.71166067	    -12.68414512	      4.08563251	    102.08192745	      1.78166574	     -7.17760821	    -16.38272986	      0.00000000	     64.70129703	     -3.88487214	      6.29480894	     67.98723285	      1.18660106	    -16.92550300	    -19.11416189	      0.00000000	    -35.67542594	      7.37432837	      0.08201896	     88.70938466	     -3.56371564	    -24.14945709	     20.73657201	      0.72622408	      0.00000000	      0.00000000	     89.74816581	     -0.59594089	     19.61921335	     13.91803248	     89.42020590	      0.00000000	      0.00000000
      0.13333333	    -21.71792103	     -3.56314670	      7.23177610	     -0.25605966	      1.03834400	      0.01652603	    103.53745608	    -12.55572895	      3.75057716	     99.73479945	      1.74070063	     -7.43894940	    -16.46942305	      0.00000000	     65.79182035	     -3.82557514	      6.34787989	     70.68697325	      1.23372042	    -16.93703307	    -19.52952524	      0.00000000	    -35.76820114	      7.17335412	      0.11046311	     88.43871243	     -3.98230880	    -21.08660057	     21.20083218	      0.74901891	      0.00000000	      0.00000000	     89.76158961	     -0.56316373	     19.56851661	     14.08790865	     89.42299482	      0.00000000	      0.00000000
